ply
format ascii 1.0
comment VCGLIB generated
element vertex 108
property float x
property float y
property float z
element face 0
property list uchar int vertex_indices
end_header
-0.769067	-0.837768	0.706415	
-0.774303	-0.837541	0.655601	
-0.775771	-0.84527	0.60459	
-0.795368	-0.874502	0.586085	
-0.82518	-0.916344	0.57506	

-0.209069	-0.860253	0.823545	
-0.258455	-0.854211	0.807609	
-0.308105	-0.850641	0.793332	
-0.349869	-0.880206	0.788227	
-0.397275	-0.898914	0.785006	
-0.427062	-0.901311	0.786507	
-0.460288	-0.90161	0.790209	
-0.513061	-0.898751	0.790238	
-0.564928	-0.896006	0.784703	
-0.617636	-0.898387	0.782388	
-0.668516	-0.895006	0.779689	

-0.218361	-0.683869	0.823168	
-0.268284	-0.674575	0.81627	
-0.318689	-0.67103	0.808418	
-0.368712	-0.673583	0.798009	
-0.419461	-0.678771	0.795885	
-0.46982	-0.68807	0.796067	
-0.520652	-0.681294	0.79437	
-0.571128	-0.677635	0.78728	
-0.622048	-0.674369	0.783362	
-0.673328	-0.672681	0.783659	
-0.723699	-0.664426	0.783545	
-0.760322	-0.668798	0.770166	
-0.774784	-0.666888	0.734072	
-0.779151	-0.660157	0.683681	
-0.796494	-0.648564	0.636516	
-0.814345	-0.645005	0.588191	
-0.826132	-0.647102	0.537913	
-0.831477	-0.65443	0.487587	
-0.831447	-0.663733	0.437368	
-0.82781	-0.679269	0.388788	
-0.822277	-0.713627	0.350671	
-0.816475	-0.748789	0.313975	

-0.476289	-0.687474	-0.418872	
-0.526091	-0.677324	-0.425794	
-0.577042	-0.682389	-0.4267	
-0.588377	-0.709215	-0.383322	
-0.592353	-0.735166	-0.335849	
-0.598304	-0.751404	-0.30012	
-0.633315	-0.750904	-0.262928	
-0.670997	-0.747617	-0.228372	
-0.706309	-0.731644	-0.194973	

-0.752926	-0.667309	-0.148245	
-0.760633	-0.620703	-0.168507	
-0.773492	-0.591158	-0.208064	
-0.790615	-0.585437	-0.255877	
-0.807347	-0.585619	-0.304241	
-0.82425	-0.593559	-0.351978	
-0.840344	-0.609377	-0.398048	
-0.856204	-0.630985	-0.441536	
-0.871285	-0.655293	-0.483972	
-0.885623	-0.67822	-0.527312	
-0.897571	-0.691959	-0.575421	
-0.912109	-0.715856	-0.618263	
-0.92224	-0.733371	-0.665321	
-0.928682	-0.746368	-0.714256	
-0.940105	-0.755781	-0.763148	
-0.938524	-0.752469	-0.814523	
-0.917112	-0.729995	-0.855153	
-0.875628	-0.70013	-0.853918	
-0.841114	-0.693694	-0.816721	
-0.832249	-0.699826	-0.790027	
-0.827762	-0.709457	-0.760976	
-0.835793	-0.732216	-0.71582	
-0.822809	-0.756972	-0.672932	
-0.822208	-0.785151	-0.63012	
-0.817357	-0.809214	-0.585283	
-0.824197	-0.852098	-0.557901	
-0.82722	-0.880204	-0.515065	
-0.820763	-0.910906	-0.474271	
-0.816686	-0.918665	-0.423904	
-0.813339	-0.925602	-0.373135	
-0.790049	-0.924143	-0.327388	
-0.783722	-0.933675	-0.277469	
-0.775626	-0.945581	-0.228346	
-0.759033	-0.897915	-0.219072	
-0.742536	-0.848064	-0.211745	
-0.725848	-0.79643	-0.204483	
-0.7105	-0.746665	-0.19737	
-0.730469	-0.706407	-0.172398	
-0.752926	-0.667309	-0.148245	

-0.809829	-0.908939	0.700138	
-0.818661	-0.912054	0.645509	
-0.822594	-0.914149	0.60475	
-0.82518	-0.916344	0.57506	

-0.816475	-0.748789	0.313975	
-0.819641	-0.755616	0.263375	
-0.827138	-0.758633	0.212963	
-0.83514	-0.76148	0.162635	
-0.839781	-0.759261	0.119192	
-0.841497	-0.761092	0.0925772	
-0.827744	-0.76102	0.04332	
-0.803023	-0.76466	-0.00171307	
-0.777188	-0.768576	-0.0473136	

-0.82518	-0.916344	0.57506	
-0.827831	-0.917904	0.523867	
-0.827516	-0.901945	0.475211	
-0.827898	-0.892581	0.424976	
-0.826079	-0.886642	0.395162	
-0.819512	-0.883505	0.369234	
-0.816094	-0.851928	0.329028	
-0.816215	-0.800247	0.320392	
-0.816475	-0.748789	0.313975