ply
format ascii 1.0
comment VCGLIB generated
element vertex 103
property float x
property float y
property float z
element face 0
property list uchar int vertex_indices
end_header

-0.450083	-0.765353	-0.82605	
-0.457755	-0.815043	-0.816051	
-0.489066	-0.851091	-0.79801	
-0.527629	-0.877293	-0.776991	
-0.57498	-0.891729	-0.764414	
-0.623124	-0.903613	-0.75187	
-0.67127	-0.914607	-0.738649	
-0.71945	-0.923997	-0.724663	
-0.76619	-0.936616	-0.708087	
-0.809219	-0.954054	-0.686309	
-0.837363	-0.957716	-0.672019	
-0.861392	-0.957817	-0.630924	
-0.875626	-0.950639	-0.581033	
-0.872037	-0.961329	-0.530474	
-0.875734	-0.965066	-0.479594	
-0.878266	-0.964114	-0.428646	
-0.879843	-0.952587	-0.378748	
-0.87082	-0.922322	-0.338432	
-0.8648	-0.869982	-0.339383	
-0.859303	-0.818998	-0.342346	

-0.450083	-0.765353	-0.82605	
-0.465262	-0.726769	-0.795718	
-0.50918	-0.71178	-0.773894	
-0.555072	-0.70288	-0.752657	
-0.604776	-0.701116	-0.740703	
-0.654014	-0.698041	-0.727387	
-0.682918	-0.697409	-0.719155	
-0.711888	-0.696921	-0.71127	
-0.76115	-0.692389	-0.698579	
-0.809264	-0.689405	-0.681512	
-0.83487	-0.725061	-0.65532	
-0.857463	-0.764326	-0.628966	
-0.878966	-0.803616	-0.603081	

-0.627752	-0.892939	0.944754	
-0.577852	-0.88966	0.934146	
-0.533145	-0.880614	0.910581	
-0.514298	-0.879702	0.862212	
-0.501355	-0.879633	0.812746	
-0.488579	-0.879518	0.763267	
-0.47701	-0.879697	0.713006	
-0.467556	-0.881151	0.662879	
-0.46145	-0.883749	0.611781	
-0.460033	-0.885663	0.560373	
-0.464306	-0.886581	0.508995	
-0.466084	-0.886367	0.469995	
-0.463632	-0.886479	0.433023	
-0.454971	-0.889972	0.382394	
-0.44419	-0.891455	0.332154	
-0.434249	-0.90016	0.280516	
-0.423505	-0.896881	0.229709	
-0.418084	-0.8909	0.178288	
-0.413448	-0.887974	0.127372	
-0.415047	-0.88367	0.0761051	
-0.435923	-0.868524	0.0295894	
-0.462271	-0.8476	-0.00987191	

-0.450083	-0.765353	-0.82605	
-0.422441	-0.760209	-0.783381	
-0.400105	-0.760456	-0.737409	
-0.371626	-0.756155	-0.69527	
-0.34253	-0.751851	-0.653601	
-0.311921	-0.747479	-0.612936	
-0.281435	-0.742383	-0.572333	
-0.251525	-0.736368	-0.531233	
-0.225723	-0.728371	-0.487597	
-0.211184	-0.720183	-0.439365	
-0.227382	-0.716791	-0.390987	
-0.233516	-0.711007	-0.34795	
-0.250069	-0.706284	-0.29972	
-0.27202	-0.703191	-0.253676	
-0.298007	-0.701992	-0.209787	
-0.327354	-0.703375	-0.168066	
-0.362269	-0.710698	-0.131448	
-0.387973	-0.744676	-0.10079	
-0.412584	-0.778321	-0.0708853	
-0.43786	-0.813392	-0.0399326	
-0.462271	-0.8476	-0.00987191	

-0.416581	-0.765651	-0.961584	
-0.440878	-0.76679	-0.914921	
-0.452513	-0.767859	-0.878313	
-0.450083	-0.765353	-0.82605	

-0.863784	-0.686021	-0.531576	
-0.868309	-0.691032	-0.480836	
-0.86645	-0.692187	-0.429783	
-0.865255	-0.69571	-0.405211	
-0.863976	-0.722068	-0.377946	
-0.861672	-0.770008	-0.359559	
-0.859303	-0.818998	-0.342346	

-0.462271	-0.8476	-0.00987191	
-0.509939	-0.838069	-0.0303787	
-0.558635	-0.832574	-0.0465273	
-0.607419	-0.829756	-0.0612536	
-0.65608	-0.828195	-0.0773633	
-0.691092	-0.828123	-0.0912306	
-0.735355	-0.8271	-0.116946	
-0.774498	-0.824991	-0.15011	
-0.793252	-0.825348	-0.198369	

-0.879296	-0.803671	-0.601666	
-0.8869	-0.806503	-0.550938	
-0.88901	-0.808439	-0.498826	
-0.886977	-0.810938	-0.465827	
-0.884758	-0.811378	-0.442267	
-0.87948	-0.813151	-0.390223	
-0.859303	-0.818998	-0.342346